/* XPM */
static char *robojournal[] = {
/* columns rows colors chars-per-pixel */
"32 32 180 2 ",
"   c black",
".  c #4E301A",
"X  c #573016",
"o  c #5D522F",
"O  c #6D4425",
"+  c #664B2E",
"@  c #7D4723",
"#  c #7F4825",
"$  c #765A3B",
"%  c #485348",
"&  c #775F58",
"*  c #526B5C",
"=  c #736945",
"-  c #6A6C58",
";  c #7D615D",
":  c #5B7261",
">  c #607464",
",  c #797B64",
"<  c #76796B",
"1  c #747471",
"2  c #7F7E7A",
"3  c #A2721A",
"4  c #B37915",
"5  c #804B27",
"6  c #824D2B",
"7  c #8D5027",
"8  c #85512F",
"9  c #8F532B",
"0  c #935329",
"q  c #99572A",
"w  c #97582F",
"e  c #9E5A2C",
"r  c #865533",
"t  c #855C36",
"y  c #8B5B3B",
"u  c #905730",
"i  c #9F5C31",
"p  c #A05B2C",
"a  c #A35E32",
"s  c #8D6E2C",
"d  c #9F602C",
"f  c #9B7425",
"g  c #96762E",
"h  c #956A3D",
"j  c #947530",
"k  c #927B3C",
"l  c #A0602C",
"z  c #A97920",
"x  c #A0713D",
"c  c #8B6249",
"v  c #956A4C",
"b  c #98704D",
"n  c #8E7654",
"m  c #907755",
"M  c #907956",
"N  c #A37644",
"B  c #A97A45",
"V  c #AB7D49",
"C  c #807F69",
"Z  c #C9786C",
"A  c #DB776F",
"S  c #E66B67",
"D  c #E3756E",
"F  c #BE8524",
"G  c #CA8516",
"H  c #E0941E",
"J  c #F6B007",
"K  c #F6B20B",
"L  c #F9B40E",
"P  c #F2A913",
"I  c #F5B314",
"U  c #FAB715",
"Y  c #F6B61D",
"T  c #FCBB1B",
"R  c #D4922C",
"E  c #D38A3B",
"W  c #D4B63F",
"Q  c #F5B927",
"!  c #FABA2C",
"~  c #F8C511",
"^  c #FCC02D",
"/  c #F3CC29",
"(  c #FBD22C",
")  c #E3C43F",
"_  c #FDC131",
"`  c #95854E",
"'  c #988855",
"]  c #9F845C",
"[  c #998E5F",
"{  c #AE804E",
"}  c #B4824B",
"|  c #BA864D",
" . c #B1884D",
".. c #BD8A4F",
"X. c #A2875F",
"o. c #A8845E",
"O. c #B18452",
"+. c #BC8C53",
"@. c #AE9F5E",
"#. c #B7A356",
"$. c #B6A559",
"%. c #8D8063",
"&. c #81826E",
"*. c #9D9165",
"=. c #868D76",
"-. c #9F9C76",
";. c #92977E",
":. c #AF8163",
">. c #A58A62",
",. c #B98663",
"<. c #AB9563",
"1. c #A99D65",
"2. c #AA936F",
"3. c #A59E6D",
"4. c #A49E70",
"5. c #A19E7B",
"6. c #A5A17D",
"7. c #BCA37D",
"8. c #C0884D",
"9. c #C18C53",
"0. c #C59052",
"q. c #C3925A",
"w. c #C9955A",
"e. c #CE995D",
"r. c #C4AD4C",
"t. c #D3B84D",
"y. c #C2AC53",
"u. c #E7AD40",
"i. c #C39461",
"p. c #C89763",
"a. c #CD9B63",
"s. c #D19D63",
"d. c #C1807B",
"f. c #CAAC7A",
"g. c #E5A361",
"h. c #E9AE6F",
"j. c #E2BD7C",
"k. c #EBB87A",
"l. c #F1CF42",
"z. c #87988D",
"x. c #899A8F",
"c. c #959A80",
"v. c #999985",
"b. c #8C9D93",
"n. c gray58",
"m. c #AD9C85",
"M. c #AB918B",
"N. c #A19F90",
"B. c #9BA08A",
"V. c #9CA59B",
"C. c #A4A685",
"Z. c #A5A68A",
"A. c #A6A88E",
"S. c #A7AC93",
"D. c #AAAF97",
"F. c #ABAC98",
"G. c #AFB39C",
"H. c #B1B59F",
"J. c #AFAFAF",
"K. c #B1B4A0",
"L. c #BABEAC",
"P. c #B7B6B5",
"I. c #B7B9B5",
"U. c #C5AD9E",
"Y. c #E9B382",
"T. c #BEC1AF",
"R. c #C0C3B2",
"E. c #CFCDB4",
"W. c #C3C5BC",
"Q. c #D1CEB6",
"!. c #D4D1B9",
"~. c #D8D5BD",
"^. c gray78",
"/. c #D7D6D5",
"(. c #DADADA",
"). c #E6E4DB",
"_. c #E8E6DD",
"`. c #E9E8DF",
"'. c #ECEAE2",
"]. c None",
/* pixels */
"].].].].].].].].].].].].].].].].].].].].].].].].].].].].].].].].",
"].].].].].].].].].].].].].].].].].].].].].].].].].].].].].].].].",
"].].c :.,.,.,.,.R.T.R.L.T.T.T.T.T.T.T.T.U.D A U.R.T.T.T.L.].].].",
"].].v 0 p p p p D.S.S.S.S.S.S.S.S.S.S.S.M.Z S Z D.S.S.S.S.K.].].",
"].].y 0 p p e p D.S.S.S.S.S.S.S.S.S.S.N./.P.; m.S.S.S.S.S.K.].].",
"].].y 0 p p p p D.S.S.S.S.S.S.S.S.S.S.I.^.n.& S.S.S.S.S.S.K.].].",
"].].y 0 p p p p D.S.D.S.S.S.S.S.S.S.v.(.J.1 B.S.S.D.S.S.S.K.].].",
"].].y w a a p l D.S.S.S.S.S.S.S.D.6.t.*.2 < S.S.S.S.S.S.S.K.].].",
"].].y 7 q q e e D.S.S.S.S.S.S.S.S.$.Q ^ s S.S.S.S.S.S.S.S.H.].].",
"].].r 0 p p p p D.S.S.S.S.S.S.S.4.l.L R [ S.S.S.S.S.S.S.S.G.].].",
"].].r 0 p p p p D.S.S.S.S.S.S.S.y.Y _ j S.S.S.S.S.S.S.S.S.G.$ ].",
"].].r 0 p p p l D.S.S.S.S.S.S.1.( U F -.S.S.Z.7.7.7.7.7.7.7.o.].",
"].].8 0 p p p p D.S.S.S.S.S.C.t.I ! k S.S.S.2.i.a.i.s.i.a.i.O.].",
"].].8 0 p p p p D.S.S.S.S.S.1.I T z C.S.S.S.>.a.{ b w.s.s.w.O.].",
"].].8 0 a a e p D.S.S.S.S.6.) L H ` S.S.S.S.>.q.O u t e.e.q.{ ].",
"].].8 0 e e e p D.S.S.S.S.#.L T f S.S.S.S.S.X.w.O X h w.w.0.V ].",
"].].5 0 p p p l D.S.S.S.3./ L G *.S.S.S.S.S.] +.} N | 0.| +.B ].",
"].].5 0 p p p p D.S.S.A.r.K T j S.S.S.S.S.S.%.| ..9.9.8.9.| x ].",
"].].5 0 p p p p D.S.S.1.~ L 4 5.S.S.S.S.S.S.B.&.C C C , C C ].].",
"].].5 0 p p p l D.S.C.W J P k S.S.S.S.S.S.S.S.S.S.S.S.A.S.D.].].",
"].].5 0 p p p p D.S.f.u.I 3 Z.S.S.S.S.S.S.S.S.S.S.D.S.S.S.S.].].",
"].].@ 0 w e a e D.D.j.Y.E ' S.S.S.S.S.S.S.S.S.S.S.S.S.S.S.S.].].",
"].].@ 0 p p p d D.Z.k.g. .S.D.S.S.S.S.S.S.S.S.S.S.S.S.S.S.S.].].",
"].].@ 0 p p p e D.<.h.+.S.S.S.S.S.S.S.S.S.S.S.S.S.S.S.S.S.S.].].",
"].].@ 0 p p p p D.o = S.S.S.S.S.S.S.S.S.S.S.S.S.S.S.S.S.S.S.].].",
"].].@ 0 p p p p D., S.S.S.S.S.S.S.S.S.S.S.S.S.S.S.S.S.S.S.A.].].",
"].].@ r n m m M c.c.c.c.c.c.c.c.;.;.;.;.;.;.c.;.;.;.;.;.=.> ].].",
"].].O F.~.~.~.~.~.~.!.!.!.!.!.!.!.Q.Q.Q.Q.Q.Q.Q.E.E.E.E.B.* ].].",
"].].+ W.'.'.'.'.'.'.'.'.'.'._._._.`.`.`.`._._._.).).).).V.: ].].",
"].].. - x.b.b.b.b.b.b.b.b.b.b.b.b.b.b.b.b.b.x.x.x.x.x.x.: % ].].",
"].].].].                                                ].].].].",
"].].].].].].].].].].].].].].].].].].].].].].].].].].].].].].].]."
};
